# xmcd
# 
# Track frame offsets:
#     150
#     31213
#     70506
#     107551
#     139178
#     176289
#     212920
# 
# Disc length: 3110
# 
# Revision: 0
# Processed by: cddbd v1.5.2PL0 Copyright (c) Steve Scherf et al.
# Submitted via: fre:ac v1.0.17
# 
DISCID=580c2407
DTITLE=Miranda Hart - Is It Just Me?
DYEAR=2012
DGENRE=Audiobook
TTITLE0=2.1
TTITLE1=2.2
TTITLE2=2.3
TTITLE3=2.4
TTITLE4=2.5
TTITLE5=2.6
TTITLE6=2.7
EXTD=Read by the author
EXTT0=
EXTT1=
EXTT2=
EXTT3=
EXTT4=
EXTT5=
EXTT6=
PLAYORDER=
